<?xml version="1.0" encoding="UTF-8" standalone="no"?>
<!DOCTYPE svg PUBLIC "-//W3C//DTD SVG 1.1//EN" "http://www.w3.org/Graphics/SVG/1.1/DTD/svg11.dtd">
<svg width="100%" height="100%" viewBox="0 0 16 16" version="1.1" xmlns="http://www.w3.org/2000/svg" xmlns:xlink="http://www.w3.org/1999/xlink" xml:space="preserve" xmlns:serif="http://www.serif.com/" style="fill-rule:evenodd;clip-rule:evenodd;stroke-linejoin:round;stroke-miterlimit:2;">
    <g id="Layer1">
        <g transform="matrix(1.90314,0,0,1.90314,-1521.16,-903.888)">
            <circle cx="891.134" cy="563.109" r="9"/>
        </g>
        <path d="M40.917,145.622C32.681,134.566 24.287,119.055 17.398,101.181C2.476,62.467 0.229,27.234 12.382,22.549C24.536,17.865 46.517,45.493 61.439,84.206C64.047,90.973 66.268,97.634 68.093,104.047C79.62,91.528 93.249,80.964 108.416,72.921C123.195,95.736 162.417,83.994 188.325,77.689C192.478,85.763 201.464,90.846 211.871,90.846C218.204,90.846 224.012,88.963 228.525,85.668C248.246,98.873 275.703,118.469 297.231,113.379C301.513,118.858 305.424,124.642 308.926,130.694C317.257,125.015 326.994,119.41 337.675,114.307C375.112,96.423 410.064,91.445 415.679,103.197C421.293,114.95 395.457,139.012 358.02,156.896C346.396,162.449 335.011,166.758 324.672,169.707C327.532,181.285 329.05,193.386 329.05,205.838C329.05,263.998 295.954,314.489 247.584,339.49L247.768,405.467L247.689,405.467C247.747,405.784 247.776,406.104 247.777,406.426C247.799,414.304 230.762,420.747 209.754,420.806C188.747,420.865 171.674,414.517 171.652,406.639C171.633,399.74 184.698,393.941 202.057,392.567L201.95,354.396C194.376,355.574 186.61,356.186 178.702,356.186C171.084,356.186 163.598,355.618 156.281,354.522L156.421,404.752L156.422,404.779L156.421,404.805L156.424,405.73L156.341,405.731C155.054,413.169 138.553,419.102 118.399,419.159C97.392,419.218 80.318,412.87 80.296,404.992C80.277,398.092 93.346,392.292 110.707,390.919L110.564,339.872C61.791,315.008 28.354,264.297 28.354,205.838C28.354,184.43 32.838,164.06 40.917,145.622ZM252.704,259.87C252.745,274.585 214.938,303.748 172.895,303.866C130.852,303.984 91.317,262.667 91.275,247.952C91.234,233.237 130.703,250.696 172.746,250.578C214.789,250.461 252.663,245.155 252.704,259.87ZM174.789,116.401C203.149,116.401 226.174,139.426 226.174,167.786C226.174,196.146 203.149,219.171 174.789,219.171C146.429,219.171 123.404,196.146 123.404,167.786C123.404,139.426 146.429,116.401 174.789,116.401Z"/>
        <g transform="matrix(0.935843,0,0,0.935843,13.7036,0.915799)">
            <path d="M188.325,77.689C150.788,86.824 80.24,107.709 101.638,18.032C112.223,-26.324 170.357,24.681 197.232,46.605C201.403,43.856 206.444,42.248 211.871,42.248C217.686,42.248 225.723,43.097 230.056,46.215C231.855,47.509 233.261,49.103 234.353,50.908C271.735,39.056 335.499,16.759 330.444,59.73C319.429,153.35 262.082,108.136 228.525,85.668C224.012,88.963 218.204,90.846 211.871,90.846C201.464,90.846 192.478,85.763 188.325,77.689Z" style="fill-rule:nonzero;"/>
        </g>
    </g>
</svg>
