<?xml version="1.0" encoding="UTF-8" standalone="no"?>
<!DOCTYPE svg PUBLIC "-//W3C//DTD SVG 1.1//EN" "http://www.w3.org/Graphics/SVG/1.1/DTD/svg11.dtd">
<svg width="100%" height="100%" viewBox="0 0 421 421" version="1.1" xmlns="http://www.w3.org/2000/svg" xmlns:xlink="http://www.w3.org/1999/xlink" xml:space="preserve" xmlns:serif="http://www.serif.com/" style="fill-rule:evenodd;clip-rule:evenodd;stroke-linejoin:round;stroke-miterlimit:2;">
    <g transform="matrix(1,0,0,1,-201.634,-73.6376)">
        <g transform="matrix(1.7758,-0.684451,0.684451,1.7758,-1796.48,-324.36)">
            <ellipse cx="906.255" cy="625.623" rx="12.4" ry="39.5" style="fill:rgb(47,46,65);"/>
        </g>
        <g transform="matrix(1.90314,0,0,1.90314,-1319.52,-830.25)">
            <circle cx="893.19" cy="583.104" r="79" style="fill:rgb(47,46,65);"/>
        </g>
        <g transform="matrix(-1.90314,0.00532878,-0.00532878,-1.90314,2340.68,1895.48)">
            <rect x="991.675" y="747.007" width="24" height="43" style="fill:rgb(47,46,65);"/>
        </g>
        <g transform="matrix(-1.90313,0.00533083,-0.00533083,-1.90313,2157.98,1896.24)">
            <rect x="943.676" y="747.141" width="24" height="43" style="fill:rgb(47,46,65);"/>
        </g>
        <g transform="matrix(1.90313,-0.00533083,0.00533083,1.90313,-1487.88,-1019)">
            <ellipse cx="995.737" cy="790.529" rx="20" ry="7.5" style="fill:rgb(47,46,65);"/>
        </g>
        <g transform="matrix(1.90313,-0.00533083,0.00533083,1.90313,-1487.88,-1019.26)">
            <ellipse cx="947.734" cy="789.664" rx="20" ry="7.5" style="fill:rgb(47,46,65);"/>
        </g>
        <g transform="matrix(1.90314,0,0,1.90314,-1319.52,-830.25)">
            <circle cx="891.134" cy="563.109" r="27" style="fill:white;"/>
        </g>
        <g transform="matrix(1.90314,0,0,1.90314,-1319.52,-830.25)">
            <circle cx="891.134" cy="563.109" r="9" style="fill:rgb(63,61,86);"/>
        </g>
        <g transform="matrix(1.90314,0,0,1.90314,-1483.67,-1024.31)">
            <path d="M1058.44,606.074C1061.86,577.004 1006.55,608.475 996.15,606.074C988.512,604.312 948.403,557.743 941.609,586.215C927.491,645.382 985.351,613.233 995.737,616.302C1008.45,620.057 1051.32,666.604 1058.44,606.074Z" style="fill:rgb(108,99,255);fill-rule:nonzero;"/>
        </g>
        <g transform="matrix(1.71724,-0.820363,0.820363,1.71724,-1816.82,-27.4166)">
            <ellipse cx="1068.32" cy="648.169" rx="39.5" ry="12.4" style="fill:rgb(47,46,65);"/>
        </g>
        <g transform="matrix(1.90314,0,0,1.90314,-1483.67,-1024.31)">
            <path d="M1018.33,713.466C1018.35,721.198 998.482,736.521 976.39,736.583C954.299,736.645 933.525,714.935 933.503,707.203C933.482,699.471 954.221,708.645 976.312,708.583C998.403,708.521 1018.3,705.734 1018.33,713.466Z" style="fill:white;fill-rule:nonzero;"/>
        </g>
        <g transform="matrix(2.46752,0,0,2.38092,-584.72,-406.869)">
            <path d="M404.545,219.56C406.902,219.56 410.159,219.917 411.915,221.226C414.492,223.148 415.082,226.638 415.082,230.097C415.082,235.912 410.361,239.971 404.545,239.971C398.73,239.971 394.009,235.912 394.009,230.097C394.009,224.282 398.73,219.56 404.545,219.56Z" style="fill:rgb(108,99,255);"/>
        </g>
    </g>
</svg>
