<?xml version="1.0" encoding="UTF-8" standalone="no"?>
<!DOCTYPE svg PUBLIC "-//W3C//DTD SVG 1.1//EN" "http://www.w3.org/Graphics/SVG/1.1/DTD/svg11.dtd">
<svg width="100%" height="100%" viewBox="0 0 779 679" version="1.1" xmlns="http://www.w3.org/2000/svg" xmlns:xlink="http://www.w3.org/1999/xlink" xml:space="preserve" xmlns:serif="http://www.serif.com/" style="fill-rule:evenodd;clip-rule:evenodd;stroke-linejoin:round;stroke-miterlimit:2;">
    <g transform="matrix(-1,0,0,1,989.3,-110.903)">
        <path d="M461.855,761.164C461.8,761.167 461.744,761.168 461.689,761.168C459.707,761.168 458.076,759.537 458.076,757.555C458.076,756.548 458.497,755.585 459.236,754.902C459.327,754.539 459.393,754.279 459.484,753.917C459.451,753.838 459.419,753.76 459.386,753.681C457.869,750.099 454.34,747.761 450.45,747.761C446.535,747.761 442.987,750.131 441.487,753.747C438.56,760.798 434.833,767.861 433.915,775.315C433.511,778.61 433.681,781.951 434.419,785.188C427.543,770.19 423.973,753.887 423.95,737.389C423.948,733.248 424.178,729.111 424.639,724.997C425.019,721.624 425.547,718.274 426.223,714.949C429.908,696.909 437.821,679.997 449.31,665.608C454.87,662.574 459.368,657.907 462.195,652.239C463.22,650.201 463.943,648.026 464.345,645.781C463.717,645.863 463.08,645.914 462.452,645.956C462.257,645.966 462.051,645.976 461.856,645.986L461.782,645.99C461.729,645.992 461.675,645.993 461.622,645.993C459.658,645.993 458.042,644.377 458.042,642.413C458.042,641.592 458.324,640.795 458.842,640.157C459.113,639.824 459.384,639.491 459.655,639.158C460.067,638.644 460.488,638.14 460.899,637.626C460.947,637.577 460.992,637.525 461.033,637.471C461.506,636.885 461.979,636.309 462.452,635.723C461.589,634.383 460.427,633.26 459.059,632.443C454.318,629.666 447.777,631.589 444.353,635.877C440.918,640.166 440.27,646.182 441.463,651.54C442.636,656.099 444.577,660.425 447.202,664.333C446.944,664.662 446.677,664.981 446.42,665.31C441.72,671.353 437.624,677.842 434.19,684.684C435.025,677.02 434.028,669.265 431.282,662.06C428.499,655.345 423.282,649.69 418.687,643.885C413.169,636.912 401.852,639.955 400.88,648.794C400.871,648.88 400.861,648.965 400.852,649.051C401.535,649.436 402.203,649.845 402.856,650.277C404.216,651.185 405.035,652.717 405.035,654.352C405.035,656.76 403.26,658.829 400.88,659.196L400.781,659.211C401.024,661.671 401.453,664.108 402.066,666.503C405.653,680.009 414.721,691.423 427.066,697.971C427.467,698.177 427.858,698.382 428.259,698.578C424.809,708.355 422.645,718.539 421.821,728.874C421.355,734.971 421.382,741.096 421.903,747.189L421.873,746.973C420.556,740.199 416.941,734.084 411.64,729.666C403.766,723.197 392.641,720.815 384.146,715.616C383.239,715.033 382.184,714.724 381.107,714.724C378.021,714.724 375.481,717.263 375.481,720.349C375.481,720.596 375.498,720.843 375.53,721.088C375.541,721.164 375.553,721.239 375.565,721.315C376.831,721.831 378.064,722.425 379.257,723.094C379.939,723.479 380.607,723.888 381.261,724.32C382.62,725.228 383.439,726.76 383.439,728.395C383.439,730.803 381.664,732.872 379.285,733.239L379.185,733.254C379.113,733.265 379.051,733.275 378.979,733.285C381.143,738.452 384.18,743.207 387.957,747.343C397.383,757.458 410.577,763.247 424.402,763.335L424.413,763.335C426.27,771.407 428.962,779.265 432.444,786.782L461.136,786.782C461.239,786.463 461.331,786.134 461.424,785.815C458.768,785.982 456.102,785.823 453.485,785.342C455.614,782.73 457.742,780.097 459.871,777.485C459.919,777.436 459.963,777.385 460.005,777.331C461.085,775.994 462.175,774.667 463.254,773.33L463.255,773.329C463.313,769.231 462.842,765.142 461.856,761.165L461.855,761.164Z" style="fill:rgb(242,242,242);fill-rule:nonzero;"/>
    </g>
    <g transform="matrix(-1,0,0,1,989.3,-110.903)">
        <path d="M558.01,209.444C558.01,228.774 548.34,248.444 529.01,248.444C509.68,248.444 483.01,234.444 489.01,204.444C492.801,185.489 503.68,174.444 523.01,174.444C542.21,174.444 558.01,190.243 558.01,209.444Z" style="fill:rgb(47,46,65);fill-rule:nonzero;"/>
    </g>
    <g transform="matrix(-1,0,0,1,989.3,-110.903)">
        <path d="M476.924,485.619C478.705,483.642 479.692,481.074 479.692,478.413C479.692,474.701 477.771,471.242 474.621,469.28L483.082,431.987L464.483,438.985L459.3,473.326C458.461,474.895 458.022,476.647 458.022,478.426C458.022,484.362 462.906,489.246 468.841,489.246C471.928,489.246 474.872,487.925 476.924,485.619L476.924,485.619Z" style="fill:rgb(255,184,184);fill-rule:nonzero;"/>
    </g>
    <g transform="matrix(-1,0,0,1,989.3,-110.903)">
        <path d="M516.402,353.435L503.421,354.756C503.421,354.756 506.816,373.987 501.506,378.319C496.197,382.65 498.337,382.63 498.368,385.84C498.399,389.05 496.31,394.421 492.06,397.672C487.811,400.924 478.973,458.828 478.973,458.828L459.712,459.013C460.286,454.032 460.238,449 459.568,444.032C458.426,436.551 452.653,417.709 454.762,414.478C456.872,411.247 455.761,405.306 455.7,398.886C455.638,392.465 464.823,399.559 464.72,388.859C464.618,378.158 476.399,311.011 475.236,301.391C474.073,291.771 485.762,283.097 485.762,283.097L496.463,282.994L516.402,353.435Z" style="fill:rgb(108,99,255);fill-rule:nonzero;"/>
    </g>
    <g transform="matrix(-1,0,0,1,989.3,-110.903)">
        <path d="M654.214,263.129C654.376,263.856 654.457,264.599 654.457,265.344C654.457,270.774 650.12,275.3 644.694,275.531L634.28,310.235L622.204,295.789L633.945,265.048C634.076,259.518 638.662,255.04 644.193,255.04C649.004,255.04 653.199,258.427 654.214,263.129L654.214,263.129Z" style="fill:rgb(255,184,184);fill-rule:nonzero;"/>
    </g>
    <g transform="matrix(-1,0,0,1,989.3,-110.903)">
        <path d="M544.268,274.432C544.268,274.432 569.444,264.993 583.093,316.687L601.212,335.452L616.434,307.946L614.422,301.421L626.186,274.75L646.357,286.326L641.392,304.637L642.23,313.689L637.41,319.319L629.52,348.417L624.584,357.924C624.584,357.924 618.36,370.096 607.494,372.101C604.597,372.644 601.633,372.728 598.711,372.35C592.988,371.603 586.718,368.966 580.273,363.145C556.365,341.551 542.225,324.894 542.225,324.894L544.268,274.432Z" style="fill:rgb(108,99,255);fill-rule:nonzero;"/>
    </g>
    <g transform="matrix(-1,0,0,1,989.3,-110.903)">
        <path d="M665.64,285.427L620.823,242.175C620.564,241.925 620.418,241.58 620.418,241.221C620.418,240.493 621.017,239.895 621.744,239.895C622.039,239.895 622.326,239.993 622.559,240.175L670.079,277.196L665.64,285.427Z" style="fill:rgb(63,61,86);fill-rule:nonzero;"/>
    </g>
    <g transform="matrix(-1,0,0,1,989.3,-110.903)">
        <path d="M684.098,290.221C681.85,291.011 679.516,291.532 677.146,291.774C675.94,291.893 674.73,291.935 673.53,291.95C673.109,291.964 672.682,291.966 672.264,291.972C671.267,291.986 670.27,292.001 669.263,292.012C668.415,292.029 667.557,292.042 666.712,292.049C665.468,292.068 664.102,292.042 663.21,291.168C662.446,290.276 662.123,289.087 662.329,287.931C662.527,286.736 662.889,285.575 663.404,284.479C664.479,281.892 665.564,279.308 666.639,276.72L666.472,275.272C668.446,274.986 670.455,275.048 672.408,275.454C674.02,275.865 675.395,276.918 676.213,278.366C676.383,278.689 676.519,279.028 676.617,279.379C677.038,280.921 676.735,282.633 676.916,284.246C676.957,284.582 677.019,284.914 677.101,285.242C677.569,287.205 678.889,288.86 680.699,289.752C681.766,290.222 682.944,290.384 684.098,290.221Z" style="fill:rgb(204,204,204);fill-rule:nonzero;"/>
    </g>
    <g transform="matrix(-1,0,0,1,989.3,-110.903)">
        <path d="M687.249,288.967C686.314,289.631 685.233,290.061 684.098,290.221C685.169,289.856 686.22,289.438 687.249,288.967Z" style="fill:rgb(230,230,230);fill-rule:nonzero;"/>
    </g>
    <g transform="matrix(-1,0,0,1,989.3,-110.903)">
        <path d="M684.098,290.221C681.85,291.011 679.516,291.532 677.146,291.774C675.94,291.893 674.73,291.935 673.53,291.95C673.109,291.964 672.682,291.966 672.264,291.972C671.267,291.986 670.27,292.001 669.263,292.012C669.313,291.507 669.388,291.005 669.49,290.507C670.43,285.865 673.161,281.917 676.213,278.366C676.383,278.689 676.519,279.028 676.617,279.379C677.038,280.921 676.735,282.633 676.916,284.246C676.957,284.582 677.019,284.914 677.101,285.242C677.569,287.205 678.889,288.86 680.699,289.752C681.766,290.222 682.943,290.384 684.098,290.221Z" style="fill:rgb(108,99,255);fill-rule:nonzero;"/>
    </g>
    <g transform="matrix(-1,0,0,1,778.6,0)">
        <path d="M299.8,250.089L298.019,258.576L296.505,289.88L357.341,281.643L362.012,245.395L355.555,234.785L299.8,250.089Z" style="fill:rgb(255,182,182);fill-rule:nonzero;"/>
    </g>
    <g transform="matrix(-0.479661,-0.877454,-0.877454,0.479661,905.69,468.382)">
        <circle cx="530.233" cy="219.146" r="28.792" style="fill:rgb(255,183,183);"/>
    </g>
    <g transform="matrix(-1,0,0,1,989.3,-110.903)">
        <path d="M486.856,321.981L478.939,301.411C478.931,283.74 491.221,268.272 508.436,264.285L508.545,264.26L514.238,256.589L537.369,258.903L541.609,267.567L558.37,277.548L577.432,299.869C583.436,304.18 587.002,309.707 588.034,316.299C590.225,330.294 580.426,344.296 579.261,345.902L576.257,362.815L506.821,372.766L506.291,372.833L486.856,321.981Z" style="fill:rgb(108,99,255);fill-rule:nonzero;"/>
    </g>
    <g transform="matrix(-1,0,0,1,989.3,-110.903)">
        <path d="M500.101,226.694C500.362,226.653 500.623,226.598 500.884,226.556C505.375,225.76 509.866,224.977 514.344,224.167L514.756,214.017L520.181,223.109C532.555,227.216 544.133,224.895 555.025,219.772C558.617,218.066 562.103,216.144 565.463,214.017C567.806,199.72 561.895,188.453 546.716,187.015C546.244,186.97 545.905,186.576 545.493,186.369C545.493,186.369 545.493,186.369 545.493,186.369C545.486,186.369 545.479,186.363 545.479,186.356C545.479,186.356 545.479,186.356 545.479,186.356C544.779,186.026 544.065,185.71 543.351,185.422C531.957,180.969 518.962,183.489 510.058,191.877C501.268,200.269 497.313,214.127 500.101,226.694Z" style="fill:rgb(47,46,65);fill-rule:nonzero;"/>
    </g>
    <g transform="matrix(-1,0,0,1,778.6,0)">
        <path d="M342.209,604.549L358.727,612.139L395.863,552.037L371.484,540.835L342.209,604.549Z" style="fill:rgb(255,182,182);fill-rule:nonzero;"/>
    </g>
    <g transform="matrix(-1,0,0,1,989.3,-110.903)">
        <path d="M552.556,705.421L579.384,715.861L574.243,727.049L591.189,755.602C591.895,756.79 592.267,758.146 592.267,759.528C592.267,763.747 588.795,767.218 584.576,767.218C583.468,767.218 582.372,766.979 581.365,766.516L550.278,752.23L550.005,738.702L542.827,748.806L531.106,743.42L552.556,705.421Z" style="fill:rgb(47,46,65);fill-rule:nonzero;"/>
    </g>
    <g transform="matrix(-1,0,0,1,778.6,0)">
        <path d="M270.001,641.839L288.18,641.839L296.828,571.721L269.998,571.722L270.001,641.839Z" style="fill:rgb(255,182,182);fill-rule:nonzero;"/>
    </g>
    <g transform="matrix(-1,0,0,1,989.3,-110.903)">
        <path d="M470.815,608.863L470.815,608.675L477.643,596.908L470.671,581.591L470.176,488.501C467.429,421.229 506.457,388.891 506.764,388.573L507.611,387.694L570.201,386.162C570.201,386.162 603.097,482.735 629.231,569.752C630.776,574.895 635.144,579.968 633.786,585.059C623.01,625.444 610.219,671.153 602.01,672.444L576.01,658.444L580.842,588.452L577.871,580.835C572.549,579.854 558.714,526.16 558.714,526.16C556.395,523.407 556.514,515.921 556.514,515.921L538.392,496.894L521.688,584.596L525.819,610.754L522.401,619.748L507.763,694.002L507.607,695.199L480.01,692.444L470.815,608.863Z" style="fill:rgb(47,46,65);fill-rule:nonzero;"/>
    </g>
    <g transform="matrix(-1,0,0,1,989.3,-110.903)">
        <path d="M474.545,743.775L503.282,742.059L503.282,754.371L530.603,773.24C532.68,774.675 533.924,777.044 533.924,779.569C533.924,783.788 530.452,787.259 526.233,787.259L492.021,787.259L486.124,775.081L483.821,787.259L470.922,787.259L474.545,743.775Z" style="fill:rgb(47,46,65);fill-rule:nonzero;"/>
    </g>
    <g transform="matrix(-1,0,0,1,989.3,-110.903)">
        <path d="M511.132,185.641L511.132,185.665C511.136,187.172 510.944,188.673 510.561,190.131C510.5,190.386 510.427,190.654 510.342,190.909L510.342,190.922C508.688,196.194 504.653,200.396 499.451,202.262C499.074,202.408 498.685,202.53 498.295,202.639C497.475,202.877 496.637,203.048 495.789,203.15C495.027,203.258 494.258,203.311 493.489,203.308C492.888,203.311 492.287,203.283 491.688,203.223C490.288,203.082 488.91,202.767 487.588,202.286C487.38,202.226 487.177,202.153 486.979,202.067C486.88,202.032 486.782,201.991 486.687,201.946C480.133,199.202 475.845,192.759 475.845,185.654C475.845,183.018 476.436,180.414 477.573,178.036L477.586,178.024C478.451,176.212 479.624,174.565 481.053,173.156C484.241,169.981 485.646,162.022 490.489,162.022C490.72,162.017 490.952,162.026 491.183,162.046C494.431,162.155 500.437,169.165 502.992,170.82C504.89,172.019 506.535,173.577 507.835,175.407C509.192,177.29 510.16,179.425 510.682,181.686C510.981,182.983 511.132,184.31 511.132,185.641Z" style="fill:rgb(47,46,65);fill-rule:nonzero;"/>
    </g>
    <g transform="matrix(-1,0,0,1,989.3,-110.903)">
        <path d="M489.575,179.497C486.835,182.687 482.545,183.927 478.675,185.587C464.822,191.665 454.837,204.22 452.035,219.087C450.965,225.057 451.105,231.237 449.415,237.057C447.735,242.877 443.575,248.587 437.605,249.597C433.565,250.287 429.515,248.727 425.715,247.187C423.625,246.347 421.535,245.504 419.445,244.657C421.625,239.187 423.802,233.717 425.975,228.247C422.483,233.409 418.42,238.162 413.865,242.417C406.375,239.397 398.879,236.377 391.375,233.357C409.835,233.427 406.685,215.507 410.815,197.527C413.085,187.647 432.415,180.957 436.205,171.557C440.573,160.683 451.171,153.519 462.89,153.519C473.573,153.519 483.41,159.472 488.365,168.937C492.155,170.447 492.265,176.347 489.575,179.497Z" style="fill:rgb(47,46,65);fill-rule:nonzero;"/>
    </g>
    <g transform="matrix(-1,0,0,1,989.3,-110.903)">
        <path d="M567.981,390.569C576.595,392.815 583.583,399.145 586.667,407.495C587.489,409.863 588.001,412.671 586.589,414.923C585.701,416.584 583.7,417.343 581.933,416.688C580.089,415.928 578.82,414.043 577.882,412.373C576.64,410.012 575.572,407.563 574.688,405.046C573.24,401.248 570.15,394.908 574.561,391.939C578.271,389.442 583.183,390.412 587.358,390.241C591.869,390.056 596.883,388.328 598.486,383.652C600.045,379.105 596.391,374.828 592.452,373.099C587.647,371.107 582.154,371.63 577.812,374.493C573.582,377.425 570.56,381.797 569.312,386.789C569.284,386.903 569.27,387.02 569.27,387.137C569.27,387.961 569.948,388.639 570.772,388.639C571.426,388.639 572.009,388.211 572.204,387.586C573.443,383.064 576.122,378.809 580.303,376.492C584.217,374.322 589.585,374.189 593.237,376.997C595.044,378.387 596.462,380.698 595.537,382.994C594.688,385.101 592.478,386.354 590.373,386.862C585.613,388.013 580.635,386.524 575.89,388.044C571.366,389.494 568.759,393.194 569.412,397.996C569.905,400.694 570.705,403.327 571.795,405.844C572.721,408.431 573.803,410.961 575.036,413.417C576.92,416.977 580.316,420.83 584.798,419.786C589.907,418.597 591.119,412.633 590.025,408.246C587.528,398.244 578.568,390.232 568.779,387.676C568.665,387.649 568.548,387.635 568.431,387.635C567.607,387.635 566.929,388.313 566.929,389.136C566.929,389.791 567.357,390.373 567.981,390.569L567.981,390.569Z" style="fill:rgb(47,46,65);fill-rule:nonzero;"/>
    </g>
    <g transform="matrix(-1,0,0,1,989.3,-110.903)">
        <path d="M612.876,663.787C610.755,661.279 607.73,659.749 604.79,658.284L580.126,645.999L579.423,650.376C578.491,647.497 573.913,647.285 572.058,649.676C570.202,652.067 570.796,655.68 572.606,658.106C574.416,660.531 577.164,662.045 579.825,663.485C585.726,666.679 591.628,669.873 597.529,673.067C600.278,674.555 603.116,676.071 606.224,676.411C609.332,676.751 612.813,675.631 614.362,672.915C615.988,670.062 614.996,666.294 612.876,663.787Z" style="fill:rgb(47,46,65);fill-rule:nonzero;"/>
    </g>
    <g transform="matrix(-1,0,0,1,989.3,-110.903)">
        <path d="M516.928,686.663C513.911,685.367 510.521,685.349 507.236,685.351C498.052,685.358 488.867,685.366 479.682,685.373L481.008,689.603C478.888,687.444 474.698,689.299 474.105,692.266C473.513,695.234 475.658,698.202 478.36,699.564C481.063,700.926 484.198,701.053 487.222,701.153C493.929,701.376 500.635,701.598 507.341,701.82C510.466,701.924 513.683,702.013 516.615,700.93C519.547,699.846 522.162,697.289 522.335,694.167C522.516,690.888 519.946,687.96 516.928,686.663Z" style="fill:rgb(47,46,65);fill-rule:nonzero;"/>
    </g>
    <g transform="matrix(-1,0,0,1,989.3,-110.903)">
        <path d="M671.798,493.197C631.385,493.197 587.469,485.144 543.849,469.658C489.906,450.508 440.446,421.604 400.817,386.069L401.99,383.716C441.429,419.079 490.669,447.851 544.389,466.92C592.934,484.155 641.844,492.14 685.812,490.033L685.889,492.862C681.245,493.086 676.548,493.198 671.798,493.197Z" style="fill:rgb(240,240,240);fill-rule:nonzero;"/>
    </g>
    <g transform="matrix(-1,0,0,1,989.3,-110.903)">
        <path d="M309.753,345.716C277.373,302.971 290.214,254.186 271.244,220.152C198.537,89.713 288.065,101.731 389.286,127.097L389.527,129.911C325.104,139.853 282.736,173.009 273.285,220.877C265.941,258.078 279.418,301.697 311.235,343.698L309.753,345.716Z" style="fill:rgb(240,240,240);fill-rule:nonzero;"/>
    </g>
    <g transform="matrix(-1,0,0,1,989.3,-110.903)">
        <path d="M622.169,497.444C581.757,497.444 535.312,452.598 494.22,473.906C369.805,538.42 386.932,430.466 351.188,390.317L352.362,387.963C391.801,423.326 441.041,452.099 494.761,471.168C543.306,488.403 592.216,496.388 636.184,494.281L636.26,497.11C631.617,497.334 626.92,497.445 622.169,497.444Z" style="fill:rgb(240,240,240);fill-rule:nonzero;"/>
    </g>
    <g transform="matrix(-1,0,0,1,989.3,-110.903)">
        <path d="M714.881,479.636L714.205,476.954C750.348,460.567 747.243,411.758 779.58,400.613C1025.91,315.709 782.755,306.134 728.061,261.224C679.151,221.063 625.848,174.37 558.105,150.322L558.645,147.584C626.684,171.738 687.335,211.328 729.425,259.062C771.727,307.035 790.264,357.563 781.622,401.337C774.807,435.856 751.728,462.931 714.881,479.636Z" style="fill:rgb(240,240,240);fill-rule:nonzero;"/>
    </g>
    <g transform="matrix(-1,0,0,1,989.3,-110.903)">
        <path d="M382.998,498.628C339.497,427.505 281.702,363.975 210.7,326.103L212.459,324.536C243.939,388.122 304.808,449.029 383.854,496.04L382.998,498.628Z" style="fill:rgb(240,240,240);fill-rule:nonzero;"/>
    </g>
    <g transform="matrix(-1,0,0,1,989.3,-110.903)">
        <path d="M662.192,580.444C654.002,580.444 645.671,580.199 637.201,579.708L637.291,576.879C699.767,612.424 755.501,603.971 798.592,547.539L799.382,550.166C762.469,570.111 715.42,580.444 662.192,580.444Z" style="fill:rgb(240,240,240);fill-rule:nonzero;"/>
    </g>
    <g transform="matrix(-1,0,0,1,778.6,0)">
        <ellipse cx="464.297" cy="431.139" rx="8.447" ry="11.327" style="fill:rgb(253,101,132);"/>
    </g>
    <g transform="matrix(-0.150097,-0.988671,-0.988671,0.150097,1008.22,555.975)">
        <ellipse cx="378.422" cy="344.442" rx="8.447" ry="11.327" style="fill:rgb(230,230,230);"/>
    </g>
    <g transform="matrix(-1,0,0,1,778.6,0)">
        <ellipse cx="140.033" cy="101.004" rx="8.447" ry="11.327" style="fill:rgb(230,230,230);"/>
    </g>
    <g transform="matrix(-1,0,0,1,989.3,-110.903)">
        <path d="M369.929,288.11C358.912,272.756 338.119,264.822 323.487,270.388C308.854,275.955 305.922,292.914 316.939,308.268C327.956,323.622 360.385,347.774 375.018,342.207C389.651,336.641 380.946,303.464 369.929,288.11ZM369.997,335.335C368.196,337.976 363.776,338.098 360.126,335.609C356.476,333.119 354.978,328.96 356.779,326.319C358.58,323.679 362.999,323.556 366.649,326.046C370.299,328.535 371.798,332.694 369.997,335.335Z" style="fill:rgb(63,61,86);fill-rule:nonzero;"/>
    </g>
    <g transform="matrix(-1,0,0,1,989.3,-110.903)">
        <path d="M357.493,303.129C356.121,304.238 354.749,305.347 353.377,306.456C351.693,308.009 349.699,309.187 347.527,309.914C344.545,310.603 341.426,310.417 338.547,309.379C334.35,308.023 330.67,305.408 328.009,301.89L330.974,302.552C329.401,300.73 328.122,298.674 327.183,296.458C326.487,294.401 326.875,292.314 328.753,291.751C330.902,291.106 334.361,292.556 336.165,291.514C339.285,289.712 334.156,283.001 336.999,280.931C338.656,279.725 341.971,280.918 344.734,282.101C348.17,283.411 351.428,285.15 354.427,287.278C359.336,291.068 362.053,297.042 360.049,300.5C359.363,301.524 358.497,302.415 357.493,303.129Z" style="fill:rgb(108,99,255);fill-rule:nonzero;"/>
    </g>
    <g transform="matrix(-1,0,0,1,989.3,-110.903)">
        <path d="M356.482,314.642C354.082,314.971 351.306,313.126 348.991,311.425L348.402,310.653C347.92,309.177 347.717,307.623 347.804,306.072C347.916,304.597 349.043,303.386 350.506,303.168C351.914,302.983 353.792,303.59 354.721,302.775C356.519,301.201 352.351,296.861 354.256,295.388C355.326,294.561 357.599,295.621 358.579,297.043C359.379,298.367 359.748,299.909 359.636,301.452C359.668,303.719 359.7,305.986 359.731,308.254C359.833,309.592 359.697,310.938 359.331,312.23C358.921,313.51 357.812,314.449 356.482,314.642Z" style="fill:rgb(47,46,65);fill-rule:nonzero;"/>
    </g>
    <g transform="matrix(-1,0,0,1,989.3,-110.903)">
        <path d="M357.083,322.197C353.757,321.214 348.686,317.787 344.366,314.761L343.08,313.642C341.733,312.114 340.592,310.418 339.685,308.594C339.186,307.229 339.828,306.432 342.036,307.091C343.991,307.675 347.07,309.334 347.98,309.007C349.74,308.375 341.261,301.611 343.235,301.143C344.343,300.88 348.248,303.222 350.462,305.226C352.092,306.672 353.439,308.409 354.434,310.349C355.728,312.701 357.022,315.053 358.316,317.406C359.097,318.58 359.642,319.897 359.919,321.28C359.946,322.281 359.101,322.793 357.083,322.197Z" style="fill:rgb(255,101,132);fill-rule:nonzero;"/>
    </g>
    <g transform="matrix(-1,0,0,1,989.3,-110.903)">
        <path d="M827.835,138.641C829.14,122.123 840.07,141.613 856.588,142.918C872.112,144.138 884.237,157.253 884.237,172.826C884.237,189.283 870.695,202.826 854.237,202.826C853.445,202.826 852.653,202.795 851.862,202.732C835.345,201.427 826.53,155.158 827.835,138.641Z" style="fill:rgb(108,99,255);fill-rule:nonzero;"/>
    </g>
    <g transform="matrix(-1,0,0,1,989.3,-110.903)">
        <path d="M930.665,297.231C931.891,281.712 945.004,269.594 960.572,269.594C961.36,269.594 962.149,269.625 962.935,269.687C979.452,270.992 990.501,238.191 989.196,254.708C987.891,271.226 974.727,330.805 958.209,329.501C942.69,328.275 930.572,315.162 930.572,299.594C930.572,298.805 930.603,298.017 930.665,297.231Z" style="fill:rgb(108,99,255);fill-rule:nonzero;"/>
    </g>
    <g transform="matrix(-1,0,0,1,989.3,-110.903)">
        <path d="M968.316,333.383C963.8,335.56 958.583,334.276 954.685,331.402C950.25,328.132 948.064,322.931 947.342,317.596C946.647,311.869 947.125,306.061 948.748,300.525C950.289,295.185 953.592,289.643 959.494,288.542C963.427,287.807 967.625,289.486 968.715,293.57C969.557,296.898 968.597,300.435 966.189,302.882C962.659,306.273 956.993,306.015 952.893,303.86C948.071,301.324 945.41,296.252 944.531,291.036C943.487,284.835 944.946,278.604 947.021,272.771C949.276,266.431 952.085,260.28 954.664,254.068C959.695,241.954 964.421,229.578 966.425,216.55C969.486,196.649 964.72,173.03 947.272,160.847C937.853,154.27 926.041,152.407 914.803,153.823C902.953,155.316 892.063,160.516 882.419,167.401C877.403,171.047 872.639,175.028 868.16,179.316C865.39,182.166 861.15,183.064 857.462,181.583C848.188,177.809 851.144,162.719 860.703,161.595C865.046,161.084 869.519,163.507 872.465,166.535C875.679,169.971 877.777,174.302 878.481,178.953C880.116,188.745 876.486,199.095 870.18,206.58C863.056,215.036 852.229,219.796 841.69,222.303C829.691,225.158 817.349,225.304 805.084,225.575C792.532,225.852 779.832,226.33 767.717,229.931C757.966,232.859 748.766,237.38 740.49,243.31C723.819,255.152 711.338,271.994 704.861,291.389C703.338,296.082 702.21,300.893 701.491,305.774C701.208,307.684 704.199,307.913 704.481,306.01C707.635,284.736 719.154,265.172 735.345,251.167C743.422,244.148 752.669,238.601 762.663,234.778C774.701,230.211 787.488,229.053 800.265,228.68C813.313,228.299 826.48,228.507 839.333,225.894C850.697,223.585 862.204,219.055 870.483,210.665C877.783,203.268 882.3,192.685 881.815,182.226C881.365,172.494 876.005,162.088 866.075,159.196C861.416,157.839 856.414,158.702 852.953,162.259C849.037,166.388 847.768,172.391 849.679,177.752C852.23,183.648 858.916,186.683 865.034,184.72C867.213,183.92 869.181,182.633 870.788,180.958C880.164,172.179 890.656,164.122 902.865,159.75C914.252,155.673 927.351,154.836 938.682,159.539C960.133,168.442 966.578,194.281 963.58,215.328C961.618,229.102 956.403,242.144 951.069,254.903C948.345,261.419 945.318,267.892 943.232,274.649C941.366,280.699 940.428,287.191 941.959,293.424C943.296,298.865 946.459,303.865 951.519,306.5C956.115,308.894 961.947,309.307 966.45,306.46C972.961,302.344 974.425,290.979 967.113,286.838C962.261,284.09 956.048,285.44 952.024,289.049C947.513,293.095 945.67,299.154 944.74,304.953C942.982,315.91 944.364,329.402 955.186,335.264C959.645,337.679 964.96,338.331 969.621,336.085C970.114,335.825 970.424,335.313 970.424,334.756C970.424,333.933 969.746,333.255 968.922,333.255C968.714,333.255 968.507,333.299 968.316,333.383L968.316,333.383Z" style="fill:rgb(63,61,86);fill-rule:nonzero;"/>
    </g>
    <g transform="matrix(-1,0,0,1,989.3,-110.903)">
        <path d="M700.88,298.138C702.264,280.623 678.298,233.79 688.608,221.112C689.887,219.528 691.228,217.996 692.632,216.515C697.178,211.668 702.292,207.387 707.864,203.765C708.806,203.137 709.756,202.54 710.715,201.964C714.119,199.933 717.663,198.144 721.319,196.612C721.982,196.344 722.655,196.076 723.329,195.808C732.94,192.089 743.157,190.181 753.463,190.181C799.273,190.181 836.969,227.877 836.969,273.687C836.969,298.328 826.063,321.746 807.202,337.604C806.406,338.283 805.592,338.941 804.759,339.587C796.488,346.045 787.069,350.88 777,353.836C776.99,353.835 776.99,353.845 776.98,353.844C761.882,358.252 745.845,358.324 730.71,354.051L730.69,354.049C730.356,353.953 730.023,353.856 729.69,353.75C692.667,342.81 697.718,338.163 700.88,298.138Z" style="fill:rgb(108,99,255);fill-rule:nonzero;"/>
    </g>
    <g transform="matrix(-1,0,0,1,989.3,-110.903)">
        <path d="M721.279,196.99C721.277,196.863 721.29,196.736 721.319,196.612C721.982,196.344 722.655,196.076 723.328,195.808C723.905,196.039 724.281,196.606 724.27,197.227C724.275,198.743 724.448,200.253 724.787,201.731C727.685,214.559 740.817,222.037 752.541,225.24C766.886,229.172 782.3,229.226 795.682,236.332C801.181,239.093 805.925,243.152 809.504,248.157C813.227,253.652 814.79,260.334 813.89,266.911C811.845,282.388 799.929,293.684 795.022,308.053C792.999,313.972 792.502,320.272 794.803,326.192C796.753,331.221 800.603,335.808 806.139,336.847C806.592,336.917 806.987,337.198 807.202,337.604C806.406,338.283 805.592,338.941 804.759,339.587C803.759,339.356 802.787,339.021 801.858,338.586C796.561,336.061 793.137,331.025 791.423,325.543C789.447,319.198 790.199,312.597 792.412,306.422C797.572,292.024 810.324,280.181 811.119,264.284C811.806,250.506 800.48,240.984 788.665,236.399C774.046,230.731 757.659,231.573 743.255,225.209C731.924,220.201 721.332,210.165 721.279,196.99Z" style="fill:rgb(63,61,86);fill-rule:nonzero;"/>
    </g>
    <g transform="matrix(-1,0,0,1,989.3,-110.903)">
        <path d="M707.864,203.765C708.806,203.137 709.756,202.54 710.715,201.964C710.939,202.246 711.031,202.612 710.966,202.967C709.45,215.819 712.903,228.777 720.615,239.169C723.951,243.73 728.033,247.695 732.689,250.896C737.563,254.22 743.042,256.228 748.451,258.481C753.773,260.697 759.155,263.299 763.01,267.706C766.938,272.2 768.586,277.997 768.765,283.87C769.18,297.786 761.27,309.92 759.638,323.464C758.91,329.505 759.781,335.503 763.154,340.674C766.071,345.138 770.64,348.388 776.123,348.179C777.935,348.101 777.817,350.74 776.221,351.126C776.112,351.152 776,351.167 775.887,351.17C769.508,351.408 764.05,347.486 760.676,342.324C756.746,336.326 755.775,329.318 756.771,322.305C758.705,308.735 766.918,296.193 765.68,282.152C765.337,276.196 762.479,270.658 757.825,266.926C753.081,263.231 747.287,261.278 741.79,258.998C736.295,256.835 731.181,253.81 726.638,250.037C722.203,246.219 718.407,241.717 715.394,236.7C709.371,226.834 706.727,215.268 707.864,203.765Z" style="fill:rgb(63,61,86);fill-rule:nonzero;"/>
    </g>
    <g transform="matrix(-1,0,0,1,989.3,-110.903)">
        <path d="M688.608,221.112C689.887,219.528 691.228,217.996 692.632,216.515C690.688,224.154 690.356,232.116 691.659,239.891C693.228,249.673 697.24,258.902 703.322,266.723C706.371,270.617 709.964,274.053 713.991,276.925C718.598,280.198 723.689,283.057 726.739,287.993C733.356,298.707 727.308,311.531 724.055,322.228C722.35,327.811 721.194,333.809 723.082,339.495C724.55,343.904 727.803,348.184 732.609,349.055C734.498,349.395 734.271,352.396 732.373,352.046C732.017,351.977 731.662,351.899 731.308,351.811C726.09,350.436 722.324,346.166 720.496,341.126C718.126,334.549 719.236,327.736 721.227,321.202C724.503,310.457 731.24,296.414 721.947,286.692C718.028,282.59 712.719,280.074 708.437,276.376C704.599,273.076 701.228,269.27 698.417,265.061C689.811,252.14 686.312,236.467 688.608,221.112Z" style="fill:rgb(63,61,86);fill-rule:nonzero;"/>
    </g>
    <g transform="matrix(-1,0,0,1,989.3,-110.903)">
        <path d="M745.924,435.247L745.924,433.321L713.63,433.321L713.63,388.383L711.709,388.383L711.709,433.321L674.698,433.321L674.698,398.617C674.051,399.126 673.412,399.649 672.782,400.188L672.782,433.321L648.337,433.321C648.065,433.958 647.803,434.6 647.556,435.247L672.782,435.247L672.782,473.008L641.461,473.008C641.491,473.656 641.535,474.293 641.59,474.935L672.782,474.935L672.782,505.06L649.414,505.06C649.7,505.707 650.001,506.344 650.318,506.976L672.782,506.976L672.782,532.3L674.698,532.3L674.698,506.976L711.709,506.976L711.709,532.3L713.63,532.3L713.63,506.976L745.924,506.976L745.924,505.06L713.63,505.06C713.63,505.058 713.63,505.056 713.63,505.054C713.63,488.531 727.226,474.935 743.749,474.935L745.924,474.935L745.924,473.008L713.63,473.008L713.63,435.247L745.924,435.247ZM711.709,505.06L674.698,505.06L674.698,474.935L711.709,474.935L711.709,505.06ZM711.709,473.008L674.698,473.008L674.698,472.253C674.699,451.952 691.405,435.247 711.706,435.247C711.707,435.247 711.708,435.247 711.709,435.247L711.709,473.008Z" style="fill:rgb(63,61,86);fill-rule:nonzero;"/>
    </g>
    <g transform="matrix(-1,0,0,1,989.3,-110.903)">
        <path d="M654.569,788.79L378.819,789.097C378.165,789.097 377.628,788.56 377.628,787.906C377.628,787.253 378.165,786.716 378.819,786.716C378.819,786.716 654.569,786.408 654.569,786.408C654.57,786.408 654.571,786.408 654.572,786.408C655.225,786.408 655.763,786.946 655.763,787.599C655.763,788.252 655.225,788.79 654.572,788.79C654.571,788.79 654.57,788.79 654.569,788.79Z" style="fill:rgb(202,202,202);fill-rule:nonzero;"/>
    </g>
</svg>
